<svg xmlns="http://www.w3.org/2000/svg" width="238.667" height="240" viewBox="0 0 179 180" preserveAspectRatio="xMidYMid meet" xmlns:v="https://vecta.io/nano"><path d="M73.5 3.1c-62.9 12.3-92.2 84-56.2 137.4 4.8 7.1 15.3 17.8 21.8 22.3C83.7 193.1 144 177.8 168 130c7-13.9 9.4-24.9 9.3-42-.3-25.7-13.5-52.4-33.8-67.8-8-6.1-22.3-13.3-31-15.7-7.2-2-31.6-2.9-39-1.4zm40 5.9c23.9 7.6 42 23.6 52.4 46.2 12.1 26.2 9.9 56.9-5.8 80.8-28.9 44.1-89.6 51.8-127.3 16.2-11.4-10.8-19.3-23.3-23.7-37.6-12-38.9 6.7-82.1 43.4-100.3C66 7.5 73.7 6 92 6.4c11.7.3 15.9.8 21.5 2.6zM64 84v49h37 37.1l-.3-9.7-.3-9.8-22.7-.3L92 113V74 35H78 64v49z"/></svg>